<svg xmlns="http://www.w3.org/2000/svg" xmlns:xlink="http://www.w3.org/1999/xlink" version="1.1" x="0" y="0" viewBox="0 0 512 512" xml:space="preserve" width="512" height="512" enable-background="new 0 0 512.001 512.001">
    <path d="M256 106.37c-19.76 0-35.83 16.07-35.83 35.83 0 19.76 16.07 35.83 35.83 35.83s35.83-16.07 35.83-35.83C291.83 122.45 275.76 106.37 256 106.37zM256 162.83c-11.38 0-20.63-9.26-20.63-20.63 0-11.38 9.26-20.63 20.63-20.63 11.38 0 20.63 9.25 20.63 20.63S267.38 162.83 256 162.83z" fill="#42b983" />
    <path d="M417.64 258.77h-65.24l-26.95-92.62c2.6-7.51 4.03-15.57 4.03-23.95 0-30.84-19.11-57.29-46.11-68.17V7.6c0-4.2-3.4-7.6-7.6-7.6H236.24c-4.2 0-7.6 3.4-7.6 7.6v66.44c-27 10.88-46.11 37.32-46.11 68.17 0 8.39 1.43 16.44 4.03 23.95l-26.95 92.62H94.36c-4.2 0-7.6 3.4-7.6 7.6v22.7c0 4.2 3.4 7.6 7.6 7.6h54.22l-45.1 154.99c-0.67 2.3-0.22 4.77 1.22 6.69 1.44 1.91 3.69 3.04 6.08 3.04h10.33l36.27 47.62c1.47 1.92 3.72 3 6.05 3 0.81 0 1.63-0.13 2.43-0.4 3.09-1.04 5.17-3.94 5.17-7.2v-49.53l46.04-158.2h25.76v10.36c0 7.28 5.9 13.18 13.18 13.18 7.28 0 13.18-5.9 13.18-13.18v-10.36h25.76l46.04 158.2V504.4c0 3.26 2.08 6.16 5.17 7.2 0.8 0.27 1.62 0.4 2.43 0.4 2.33 0 4.58-1.07 6.05-2.99l36.27-47.62h10.33c2.39 0 4.64-1.12 6.08-3.04 1.44-1.91 1.89-4.39 1.22-6.69l-45.1-154.99h54.22c4.2 0 7.6-3.4 7.6-7.6v-22.7C425.24 262.18 421.84 258.77 417.64 258.77zM243.84 15.2L243.84 15.2h24.32c0 0 0 54.53 0 54.54 0-0.18-4.89-0.64-5.32-0.68 -1.97-0.18-3.95-0.29-5.92-0.31 -4.18-0.05-8.37 0.25-12.5 0.91 -0.19 0.03-0.39 0.05-0.58 0.08V15.2zM241.27 85.83c0.98-0.25 1.96-0.48 2.96-0.69 29.36-5.98 59.24 11.91 67.7 40.64 1.57 5.33 2.36 10.87 2.36 16.42 0 24.14-15.75 46.56-38.46 54.78 -27.16 9.83-58.88-2.87-71.87-28.63 -4.07-8.08-6.21-17.1-6.21-26.14C197.73 115.99 216.05 92.41 241.27 85.83zM101.96 281.47v-7.49h53.22l-2.18 7.49H101.96zM155.82 481.88l-15.61-20.49h15.61V481.88zM210.66 264.25c0 0 0 0 0 0l-6.6 22.7c0 0 0 0 0 0.01L157.72 446.19h-32.85 -3.97l75.82-260.54c7.62 10.43 17.87 18.68 29.86 23.89L210.66 264.25zM242.82 281.47h-21.33l2.18-7.49h19.15V281.47zM256 235.23c-7.28 0-13.18 5.9-13.18 13.18v10.36h-14.73l12.99-44.63c4.82 1 9.81 1.53 14.93 1.53 5.11 0 10.11-0.53 14.93-1.53l12.99 44.63h-14.73v-10.36C269.18 241.13 263.28 235.23 256 235.23zM269.18 281.47v0 -7.49h19.15l0.22 0.74 1.97 6.76H269.18zM356.18 481.88v-20.49h15.61L356.18 481.88zM391.1 446.19h-3.97 -32.85l-46.34-159.24c0 0 0 0 0-0.01l-4.73-16.24 -17.8-61.16c11.99-5.22 22.25-13.47 29.86-23.89l30.22 103.86 0.49 1.69L391.1 446.19zM410.04 281.47h-51.04l-2.18-7.49h53.22V281.47z" fill="#42b983" />
</svg>
