<svg xmlns="http://www.w3.org/2000/svg" xmlns:xlink="http://www.w3.org/1999/xlink" version="1.1" x="0" y="0" viewBox="0 0 512 512" xml:space="preserve" width="512" height="512" enable-background="new 0 0 512 512">
    <g transform="translate(1 1)">
        <path d="M383 374.47H255V7.53C255 2.41 251.59-1 246.47-1H127c-5.12 0-8.53 3.41-8.53 8.53v494.93c0 1.27 0.36 2.55 0.94 3.69 0.72 2.4 2.73 3.91 5.08 4.52 0.86 0.31 1.91 0.32 2.52 0.32h256c5.12 0 8.53-3.41 8.53-8.53V383C391.53 377.88 388.12 374.47 383 374.47zM237.93 16.07v363.52l-102.4 102.4v-56.32h34.13c5.12 0 8.53-3.41 8.53-8.53s-3.41-8.53-8.53-8.53h-34.13v-17.07H152.6c5.12 0 8.53-3.41 8.53-8.53s-3.41-8.53-8.53-8.53h-17.07V357.4h34.13c5.12 0 8.53-3.41 8.53-8.53s-3.41-8.53-8.53-8.53h-34.13v-17.07H152.6c5.12 0 8.53-3.41 8.53-8.53s-3.41-8.53-8.53-8.53h-17.07v-17.07h34.13c5.12 0 8.53-3.41 8.53-8.53s-3.41-8.53-8.53-8.53h-34.13V255H152.6c5.12 0 8.53-3.41 8.53-8.53s-3.41-8.53-8.53-8.53h-17.07v-17.07h34.13c5.12 0 8.53-3.41 8.53-8.53 0-5.12-3.41-8.53-8.53-8.53h-34.13v-17.07H152.6c5.12 0 8.53-3.41 8.53-8.53s-3.41-8.53-8.53-8.53h-17.07V152.6h34.13c5.12 0 8.53-3.41 8.53-8.53 0-5.12-3.41-8.53-8.53-8.53h-34.13v-17.07H152.6c5.12 0 8.53-3.41 8.53-8.53s-3.41-8.53-8.53-8.53h-17.07V84.33h34.13c5.12 0 8.53-3.41 8.53-8.53s-3.41-8.53-8.53-8.53h-34.13V50.2H152.6c5.12 0 8.53-3.41 8.53-8.53s-3.41-8.53-8.53-8.53h-17.07V16.07H237.93zM374.47 493.93H147.48l102.4-102.4h124.59V493.93z" fill="#bcbcbc" />
    </g>
</svg>
