<svg xmlns="http://www.w3.org/2000/svg" xmlns:xlink="http://www.w3.org/1999/xlink" version="1.1" x="0" y="0" width="512" height="512" viewBox="0 0 548.18 548.18" xml:space="preserve" enable-background="new 0 0 548.176 548.176">
    <path d="M534.75 49.97c-8.94-8.95-19.69-13.42-32.26-13.42H45.68c-12.56 0-23.31 4.47-32.26 13.42C4.47 58.92 0 69.67 0 82.23v383.72c0 12.56 4.47 23.32 13.42 32.27 8.95 8.95 19.7 13.42 32.26 13.42h456.82c12.56 0 23.31-4.47 32.26-13.41 8.95-8.95 13.42-19.7 13.42-32.26V82.23C548.18 69.67 543.7 58.92 534.75 49.97zM109.63 456.82c0 4.95-1.8 9.23-5.42 12.85 -3.62 3.62-7.9 5.43-12.85 5.43H54.82c-4.95 0-9.23-1.81-12.85-5.43 -3.61-3.61-5.43-7.9-5.43-12.85v-36.54c0-4.95 1.81-9.23 5.43-12.85 3.62-3.61 7.9-5.42 12.85-5.42H91.36c4.95 0 9.23 1.81 12.85 5.42 3.62 3.62 5.42 7.9 5.42 12.85V456.82zM109.63 347.18c0 4.95-1.8 9.24-5.42 12.85 -3.62 3.61-7.9 5.43-12.85 5.43H54.82c-4.95 0-9.23-1.81-12.85-5.43 -3.61-3.61-5.43-7.9-5.43-12.85v-36.55c0-4.95 1.81-9.23 5.43-12.85 3.62-3.61 7.9-5.42 12.85-5.42H91.36c4.95 0 9.23 1.81 12.85 5.42 3.62 3.62 5.42 7.9 5.42 12.85V347.18zM109.63 237.54c0 4.95-1.8 9.24-5.42 12.85 -3.62 3.62-7.9 5.43-12.85 5.43H54.82c-4.95 0-9.23-1.81-12.85-5.43 -3.61-3.61-5.43-7.9-5.43-12.85V201c0-4.95 1.81-9.23 5.43-12.85 3.62-3.62 7.9-5.43 12.85-5.43H91.36c4.95 0 9.23 1.81 12.85 5.43 3.62 3.62 5.42 7.9 5.42 12.85V237.54zM109.63 127.91c0 4.95-1.8 9.23-5.42 12.85 -3.62 3.62-7.9 5.42-12.85 5.42H54.82c-4.95 0-9.23-1.81-12.85-5.42 -3.61-3.62-5.43-7.9-5.43-12.85V91.37c0-4.95 1.81-9.23 5.43-12.85 3.62-3.62 7.9-5.42 12.85-5.42H91.36c4.95 0 9.23 1.81 12.85 5.42 3.62 3.62 5.42 7.9 5.42 12.85V127.91zM401.99 456.82c0 4.95-1.81 9.23-5.42 12.85 -3.62 3.62-7.9 5.43-12.85 5.43H164.45c-4.95 0-9.23-1.81-12.85-5.43 -3.61-3.61-5.42-7.9-5.42-12.85V310.64c0-4.94 1.81-9.23 5.42-12.85 3.62-3.61 7.9-5.42 12.85-5.42H383.72c4.95 0 9.23 1.81 12.85 5.43 3.62 3.62 5.42 7.91 5.42 12.85V456.82L401.99 456.82zM401.99 237.54c0 4.95-1.81 9.24-5.42 12.85 -3.62 3.62-7.9 5.43-12.85 5.43H164.45c-4.95 0-9.23-1.81-12.85-5.43 -3.61-3.61-5.42-7.9-5.42-12.85V91.37c0-4.95 1.81-9.23 5.42-12.85 3.62-3.61 7.9-5.42 12.85-5.42H383.72c4.95 0 9.23 1.81 12.85 5.42 3.62 3.62 5.42 7.9 5.42 12.85V237.54L401.99 237.54zM511.63 456.82c0 4.95-1.81 9.23-5.42 12.85 -3.62 3.62-7.9 5.43-12.85 5.43h-36.54c-4.95 0-9.24-1.81-12.85-5.43 -3.62-3.61-5.43-7.9-5.43-12.85v-36.54c0-4.95 1.81-9.23 5.43-12.85 3.61-3.61 7.9-5.42 12.85-5.42h36.54c4.95 0 9.23 1.81 12.85 5.42 3.61 3.62 5.42 7.9 5.42 12.85V456.82zM511.63 347.18c0 4.95-1.81 9.24-5.42 12.85 -3.62 3.61-7.9 5.43-12.85 5.43h-36.54c-4.95 0-9.24-1.81-12.85-5.43 -3.62-3.61-5.43-7.9-5.43-12.85v-36.55c0-4.95 1.81-9.23 5.43-12.85 3.61-3.61 7.9-5.42 12.85-5.42h36.54c4.95 0 9.23 1.81 12.85 5.42 3.61 3.62 5.42 7.9 5.42 12.85V347.18zM511.63 237.54c0 4.95-1.81 9.24-5.42 12.85 -3.62 3.62-7.9 5.43-12.85 5.43h-36.54c-4.95 0-9.24-1.81-12.85-5.43 -3.62-3.61-5.43-7.9-5.43-12.85V201c0-4.95 1.81-9.23 5.43-12.85 3.61-3.62 7.9-5.43 12.85-5.43h36.54c4.95 0 9.23 1.81 12.85 5.43 3.61 3.62 5.42 7.9 5.42 12.85V237.54zM511.63 127.91c0 4.95-1.81 9.23-5.42 12.85 -3.62 3.62-7.9 5.42-12.85 5.42h-36.54c-4.95 0-9.24-1.8-12.85-5.42 -3.62-3.62-5.43-7.9-5.43-12.85V91.37c0-4.95 1.81-9.23 5.43-12.85 3.61-3.62 7.9-5.42 12.85-5.42h36.54c4.95 0 9.23 1.81 12.85 5.42 3.61 3.62 5.42 7.9 5.42 12.85V127.91z" fill="#42b983" />
</svg>
