<svg xmlns="http://www.w3.org/2000/svg" xmlns:xlink="http://www.w3.org/1999/xlink" version="1.1" x="0" y="0" width="512" height="512" viewBox="0 0 438.53 438.53" xml:space="preserve" enable-background="new 0 0 438.533 438.533">
    <path d="M409.13 109.2c-19.61-33.59-46.2-60.19-79.8-79.8C295.74 9.8 259.06 0 219.27 0c-39.78 0-76.47 9.8-110.06 29.41 -33.59 19.6-60.19 46.2-79.8 79.8C9.8 142.8 0 179.49 0 219.27c0 39.78 9.8 76.46 29.41 110.06 19.61 33.59 46.2 60.19 79.8 79.8 33.6 19.61 70.28 29.41 110.06 29.41s76.47-9.8 110.07-29.41c33.59-19.6 60.19-46.21 79.8-79.8 19.6-33.6 29.4-70.28 29.4-110.06C438.53 179.49 428.73 142.79 409.13 109.2zM353.74 297.21c-13.89 23.79-32.74 42.63-56.53 56.53 -23.79 13.89-49.77 20.83-77.94 20.83 -28.17 0-54.15-6.94-77.94-20.83 -23.79-13.9-42.63-32.74-56.53-56.53 -13.9-23.79-20.84-49.77-20.84-77.94 0-28.17 6.95-54.15 20.84-77.94 13.89-23.79 32.74-42.64 56.53-56.53 23.79-13.89 49.77-20.84 77.94-20.84 28.17 0 54.15 6.95 77.94 20.84 23.79 13.89 42.63 32.74 56.53 56.53 13.9 23.79 20.84 49.77 20.84 77.94C374.58 247.44 367.64 273.42 353.74 297.21z" fill="#42b983" />
    <path d="M219.27 146.18c-20.18 0-37.4 7.14-51.68 21.41 -14.27 14.28-21.41 31.5-21.41 51.68 0 20.18 7.14 37.4 21.41 51.67 14.28 14.28 31.5 21.42 51.68 21.42 20.18 0 37.41-7.14 51.68-21.42 14.27-14.27 21.41-31.5 21.41-51.67 0-20.18-7.14-37.4-21.41-51.68C256.68 153.32 239.45 146.18 219.27 146.18z" fill="#42b983" />
</svg>
